Patient4_TMGait_0pt4_03_left_36_EMG.mot
version=1
nRows=36
nColumns=33
inDegrees=no
endheader
time	1LAddLong	2LGlutMax	3LGlutMed	4LIliopsoas	5LSemiMemb	6LBicFemLong	7LRecFem	8LVastMed	9LVastLat	10LGasMed	11LTibAnt	12lTibPost	13LPeroneusLong	14LSol	15LExtDigLong	16LFlexDigLong	17RAddLong	18RGlutMax	19RGlutMed	20RIliopsoas	21RSemiMemb	22RBicFemLong	23RRecFem	24RVastMed	25RVastLat	26RGasMed	27RTibAnt	28RTibPost	29RPeroneusLong	30RSol	31RExtDigLong	32RFlexDigLong
48.135	-0.010223	0.13168	-0.23636	0.019836	-0.1152	0.18188	-0.13138	-0.010834	-0.021667	0.066833	0.008392	-0.027618	0.019531	0.037079	-0.008545	-0.015564	-0.099945	-0.023041	0.028229	-0.008545	0.014038	-0.003204	0.345	-0.14771	-0.032959	-0.006104	0.024872	-0.003662	-0.32333	0.083923	0.000153	-0.013428
48.136	-0.005798	0.14801	-0.16327	-0.007782	-0.10162	0.14618	-0.24887	-0.024719	0.061035	0.04303	0.007782	-0.039063	0.065918	0.095673	0.00061	-0.024567	-0.078735	-0.053864	0.036469	-0.036926	0.033722	-0.050659	0.35965	-0.13001	-0.043335	-0.000458	0.17822	-0.001068	-0.28748	0.12283	0.007324	-0.012207
48.137	-0.003815	0.11017	0.03418	0.011749	-0.078583	0.091248	-0.32379	-0.02121	0.18356	0.02655	0.039215	-0.02594	0.076141	0.11734	0.007935	-0.027771	-0.036469	-0.04776	-0.000305	-0.073395	0.021362	-0.050964	0.33691	-0.087433	-0.042267	-0.000153	0.44769	-0.003967	-0.17456	0.1738	-0.000916	-0.011292
48.138	0.018158	0.064697	0.12405	0.016632	-0.027313	0.01297	-0.32181	-0.025787	0.20981	0.010986	0.049896	-0.031891	0.023193	-0.074158	-0.02121	-0.013428	0.007629	-0.12589	-0.010376	0.037842	0.028381	0.054932	0.35858	-0.087128	-0.038757	0.005493	0.51666	-0.000153	0.0354	0.12604	-0.003052	-0.015411
48.139	0.011597	0.063019	0.071411	-0.012817	0.013428	-0.030975	-0.20142	-0.011292	0.12436	0.019073	0.020599	-0.033875	0.024109	-0.16693	0.019226	-0.025177	0.019073	-0.11551	-0.023346	0.15488	0.060272	0.14358	0.3215	-0.0914	-0.035858	0.005493	0.49576	0.000153	0.15854	-0.022888	0.002289	-0.007477
48.14	0.010681	0.067902	0.031433	-0.025635	0.043335	-0.14618	-0.10452	-0.002441	0.05661	0.038452	0.005341	-0.029755	-0.020752	-0.048065	0.057678	-0.029449	0.017395	-0.16174	-0.075684	0.019226	0.058136	0.2124	0.30487	-0.069427	-0.035248	0.00351	0.028076	-0.000305	0.27039	-0.17197	-0.001831	-0.010223
48.141	0.006104	0.11322	0.006714	-0.008545	0.07309	-0.112	-0.2005	0.024261	0.12161	0.012665	-0.033112	-0.032196	0.010986	0.013428	0.041199	-0.002747	0.054169	-0.16647	-0.1062	-0.00473	0.067291	0.14725	0.28336	-0.064545	-0.032959	0.009003	-0.60089	-0.002136	0.29037	-0.097198	-0.003357	-0.007019
48.142	0.014648	0.14603	-0.050049	0.012512	0.058746	-0.0914	-0.2948	0.019836	0.12451	-0.023651	-0.076141	-0.024872	0.1976	0.023193	0.048523	-0.013885	0.064545	-0.18036	-0.14175	0.058289	0.044861	0.10742	0.25497	-0.093536	-0.036163	0.012817	-0.69061	-0.006866	0.12894	-0.052643	-0.002747	-0.01709
48.143	0.019073	0.15427	-0.20569	0.029449	0.027008	0.02121	-0.31555	0.031128	0.17853	-0.035095	-0.058746	-0.023956	0.26504	0.12817	0.061951	-0.00351	0.045319	-0.19348	-0.13825	0.089722	0.03952	0.10498	0.26154	-0.079193	-0.043793	0.009155	-0.63797	-0.002441	0.041504	0.041809	-0.001831	-0.010376
48.144	0.018158	0.1683	-0.17746	0.030975	-0.000305	0.12604	-0.26108	-0.015259	0.16739	-0.012054	0.07019	-0.026703	-0.083313	0.11154	0.000763	0.009308	0.02533	-0.19577	-0.097198	0.039825	0.068207	0.068054	0.30884	-0.091553	-0.046844	-0.004272	-0.5069	-0.009003	0.094452	-0.019073	-0.000916	-0.008698
48.145	0.003967	0.15961	0.11078	0.033569	-0.014648	0.10712	-0.2565	0.016479	0.10941	-0.002441	0.14801	-0.020905	0.039368	0.063477	-0.071106	-0.014343	0.023041	-0.18417	-0.00412	-0.012817	0.074615	0.017395	0.30151	-0.071106	-0.053864	0.001984	-0.27084	-0.005951	0.13809	-0.18066	-0.003815	-0.009155
48.146	0.000458	0.14664	0.14465	-0.016632	-0.015259	0.052643	-0.2359	0.017395	0.058594	-0.005493	0.18173	-0.020599	0.12528	0.020447	0.073853	-0.013733	0.052795	-0.19562	-0.095367	-0.01358	0.056152	-0.036011	0.27298	-0.06546	-0.075684	-0.007477	0.18143	-0.00824	0.090637	-0.16617	-0.003815	-0.010376
48.147	0.002289	0.12222	0.1265	-0.03067	-0.055084	-0.04715	-0.18524	-0.0177	-0.0177	0.010071	0.10452	-0.020905	0.36026	0.055084	0.12848	0.002289	0.092926	-0.22507	-0.20844	-0.009613	0.044098	-0.00061	0.25375	-0.080261	-0.049896	-0.015259	0.49362	-0.006561	0.016479	-0.059814	-0.001526	-0.011749
48.148	-0.001526	0.012817	0.016632	-0.035248	-0.092773	-0.066376	-0.16312	-0.032196	-0.080261	-0.020599	-0.089111	-0.012054	0.72769	0.13519	-0.035706	-0.005646	0.12466	-0.2507	-0.18249	-0.015869	0.030823	0.024414	0.25085	-0.084991	-0.046539	-0.009003	0.18646	-0.00412	0.028992	-0.026703	-0.001526	-0.005951
48.149	-0.004425	-0.069122	-0.16861	-0.001831	-0.12192	-0.054626	-0.1384	-0.040741	-0.12833	-0.047607	-0.098724	-0.016174	0.28366	0.1564	-0.13886	0.012207	0.11414	-0.29694	-0.17883	-0.002136	0.034485	0.034943	0.24338	-0.061798	-0.06134	-0.007782	-0.36865	-0.003662	0.057831	-0.082855	-0.002441	0.003815
48.15	-0.006409	-0.09552	-0.15381	0.00885	-0.061493	-0.047913	-0.059357	-0.02121	-0.099792	-0.015106	-0.03006	-0.015259	-0.063324	0.098267	-0.19287	0.004425	0.086975	-0.27756	-0.22766	0.010986	0.028992	0.027161	0.2327	-0.049896	-0.063934	-0.005798	-0.34637	-0.007172	0.056763	-0.22354	0.001984	-0.010529
48.151	-0.014038	-0.10254	-0.17975	-0.01236	0.032806	-0.063019	-0.073395	-0.007935	0.009308	-0.016937	-0.021362	-0.010834	-0.35156	0.10559	-0.18494	0.005493	0.05249	-0.23514	-0.22446	-0.015106	0.025482	0.025177	0.22858	-0.10925	-0.050812	-0.010681	-0.1976	-0.013123	0.053253	-0.17334	0	-0.006256
48.152	-0.00885	-0.13168	-0.072632	0.027161	0.038452	0.000305	-0.12146	0.009155	0.11795	-0.049286	-0.053253	-0.013275	-0.68985	-0.015411	-0.14404	0.007019	0.054779	-0.17044	-0.24704	-0.052948	0.054932	0.024414	0.23071	-0.052032	-0.054474	-0.013885	-0.095825	-0.001373	0.019836	0.043488	-0.000153	-0.004272
48.153	-0.02121	-0.073395	-0.007019	0.036621	-0.026703	0.056763	-0.15762	0.016632	0.15381	-0.033875	-0.032806	-0.013428	-0.7869	-0.065613	-0.11536	-0.007935	-0.007172	-0.177	-0.31845	-0.10208	0.011902	0.018616	0.23743	-0.085297	-0.053406	-0.007629	-0.081024	-0.00412	0.019073	0.39841	-0.002289	-0.010376
48.154	-0.015564	-0.17166	-0.063629	0.032806	-0.052032	0.14542	-0.22278	0.01358	0.21316	-0.036163	-0.041199	-0.007935	-0.43472	-0.12177	-0.081177	-0.008698	-0.049591	-0.20126	-0.24857	-0.080109	0.013885	0.037079	0.23926	-0.10254	-0.067749	-0.003052	-0.058441	-0.006714	0.015564	0.38956	0.003662	-0.011292
48.155	0.002747	-0.23575	-0.10971	-0.008392	0.010834	0.10239	-0.13626	0.003967	0.24612	-0.048218	-0.028992	-0.016327	0.19882	-0.22034	-0.007629	-0.003204	-0.06073	-0.15457	-0.24292	-0.1294	0.006714	0.058289	0.21698	-0.050812	-0.053253	0.002747	-0.04425	-0.001221	0.07019	0.45975	-0.008087	-0.000153
48.156	0.029755	-0.31479	-0.13916	0.019379	0.077057	0.07309	-0.13672	-0.00885	0.22018	-0.051117	-0.008392	-0.008545	-0.25589	-0.15961	0.11368	0.011902	-0.053406	-0.12985	-0.1442	-0.071259	-0.007935	0.074158	0.25146	-0.032806	-0.056763	0	-0.024719	0.00061	0.054474	0.57877	-0.002594	-0.003662
48.157	0.02121	-0.26977	-0.1152	0.010223	0.069885	0.081177	-0.12466	-0.001068	0.005493	-0.074921	0.006714	-0.012817	-0.017395	-0.11856	0.10025	0.022125	-0.021667	-0.1178	-0.13351	0.09903	-0.013275	0.062103	0.19745	-0.016937	-0.052032	0.001373	0.01236	0.000763	-0.051422	0.53726	-0.004578	-0.001678
48.158	0.01236	-0.22476	-0.09079	0.008392	0.046387	0.03952	-0.046692	-0.012512	-0.20416	-0.064392	-0.00351	-0.003967	-0.004578	-0.058594	0.030365	0.014191	0.013733	-0.1358	-0.1683	0.13184	-0.009308	0.040131	0.19577	-0.00946	-0.066986	0.009155	-0.003357	0.000153	-0.085754	0.24292	-0.005341	-0.001678
48.159	0.002594	-0.19028	-0.12848	0.026093	-0.010071	-0.11704	-0.061493	-0.001068	-0.10239	-0.038147	0.003662	-0.010529	0.28	-0.046387	0.009155	-0.000916	0.052795	-0.12146	-0.15976	0.10498	0.016937	0.0177	0.19821	0.033722	-0.04715	0.01358	0.005646	-0.001068	-0.13046	0.007477	-0.00061	0.002441
48.16	-0.018768	-0.18188	-0.079498	0.010834	-0.065308	-0.10635	-0.044403	-0.003052	0.01358	-0.018311	0.003662	-0.015869	0.76797	-0.14679	0.1004	0.016174	0.035706	-0.088196	-0.16785	0.1915	0.013733	-0.029907	0.18951	0.010834	-0.042419	0.010376	0.014343	-0.000458	-0.16602	-0.20264	-0.001984	0.00946
48.161	-0.039673	-0.1799	-0.04364	0.003357	-0.06012	-0.019531	-0.077209	-0.005493	0.06958	-0.018616	-0.067291	-0.013733	0.96008	-0.22369	0.13672	0.011292	0.027924	-0.14038	-0.17777	0.23743	0.048828	-0.066376	0.19394	0.028076	-0.042419	0.012512	0.013123	0.00412	-0.13657	-0.32211	-0.001526	-0.004578
48.162	-0.027161	-0.14038	0.053406	-0.022278	-0.083771	0.034485	-0.061951	-0.009766	-0.066986	-0.01358	-0.16769	-0.012665	0.38071	-0.17838	0.23377	-0.005341	0.048523	-0.1004	-0.23789	0.15305	0.093384	-0.074463	0.20783	-0.001068	-0.050049	0.007782	0.033569	-0.001984	-0.07782	-0.097656	-0.000916	0.005951
48.163	-0.015411	-0.079498	0.29617	0.01358	-0.16174	0.10712	-0.033569	-0.000458	-0.1709	0.010071	-0.11368	-0.008392	-0.22736	-0.090332	0.11826	0.004425	0.051575	-0.12024	-0.21332	0.084076	0.11292	-0.026093	0.24933	0.029297	-0.041656	0.011902	0.03891	-0.002899	-0.10193	-0.045929	-0.002747	0.005646
48.164	0.023499	-0.075836	0.13931	0.032349	-0.079498	0.15457	-0.055847	0.000763	-0.16571	-0.034485	-0.13336	-0.010834	0.021057	-0.005341	-0.050812	0.014343	0.072174	-0.18127	-0.22903	0.084839	0.098114	-0.012665	0.18265	0.020294	-0.049286	0.01297	0.025482	0.004425	-0.07019	-0.17532	-0.000916	0.010071
48.165	0.03952	-0.025787	-0.062714	0.009766	0.069885	0.10941	-0.13611	0.011749	-0.007324	-0.063629	-0.15854	-0.009003	-0.029907	0.028687	-0.10864	0.007629	0.072479	-0.15335	-0.25253	0.013885	0.054474	0.003662	0.22675	-0.034637	-0.061188	0.007629	-0.012054	-0.006256	0.01297	-0.48019	-0.000305	0.014343
48.166	0.039978	0.006714	-0.16159	-0.015564	0.14923	0.034485	-0.15213	0.017395	0.067596	-0.077515	-0.097351	-0.008087	-0.42053	-0.07431	-0.073395	0.013123	0.037079	-0.15518	-0.298	-0.008087	0.043335	0.039215	0.27496	-0.031128	-0.067444	0.006561	-0.019836	-0.009613	0.048065	-0.57068	-0.00061	0.015259
48.167	0.036163	-0.009613	-0.067139	-0.007629	0.085754	0.11887	-0.049286	0.008392	0.025787	-0.090179	0.23407	-0.008698	-0.76767	-0.056	-0.005798	0.010986	0.021515	-0.12955	-0.25375	-0.06073	0.061188	0.097351	0.29175	-0.026703	-0.055847	0.000458	0.02243	-0.005951	0.006104	-0.3862	0	0.011902
48.168	0.017853	0.047913	0.20844	0.02655	0.052338	0.040588	0.10254	0.000763	-0.059967	-0.037842	0.2269	-0.001831	-0.043488	-0.079956	-0.077972	0.004272	0.021973	-0.10574	-0.18951	-0.11749	0.064087	0.093231	0.27344	0.004578	-0.02533	-0.005035	0.016174	-0.000916	-0.050964	-0.25986	-0.001678	0.00885
48.169	-0.004578	0.045471	0.31342	0.032654	0.043335	-0.18677	0.066071	0.016785	-0.033417	-0.052338	0.064697	-0.008392	0.38132	-0.036316	0.19486	0.011749	0.033569	-0.12116	-0.12878	-0.20447	0.071106	0.08255	0.30853	0.012207	-0.048065	0.003052	0.015564	-0.000763	-0.083923	-0.22354	-0.00061	0.010986
48.17	-0.009308	-0.001678	0.26871	0.027466	0.037231	-0.37109	0.063782	0.019684	-0.11276	-0.075836	0.13763	-0.008545	0.32577	0.093842	0.16113	0.017395	0.020752	-0.14313	-0.006561	-0.058746	0.066376	0.076447	0.31601	0.054626	-0.049438	-0.001526	0.025177	-0.003204	-0.066681	-0.14389	-0.003052	0.006256
